# xmcd
#
# Track frame offsets:
#	150
#	17670
#	30258
#	40198
#	54720
#	67358
#	79043
#	92170
#	107973
#	124520
#	136948
#	151645
#
# Disc length: 2220 seconds
#
# Revision: 0
# Processed by: cddbd v1.4PL0 Copyright (c) Steve Scherf et al.
# Submitted via: dBpowerAMP V4.0
#
DISCID=9408aa0c
DTITLE=Arne Benoni - På Norske Veier
DYEAR=1992
DGENRE=country
TTITLE0=Vårt Eget Land
TTITLE1=Vi Er Alle I Den Samme Båt
TTITLE2=Slå Ring Om Hver Arbeidsmann
TTITLE3=Hvor Var Alle Mine Venner
TTITLE4=La Oss Holde Sammen
TTITLE5=Drømmeprinsen
TTITLE6=Ingen Vet Hva Morn Dagen Bringer
TTITLE7=Sett Deg Selv I Mitt Sted
TTITLE8=Ser Frem Til Å Entre Scenen
TTITLE9=Hvor Mange Nei Kan Du Ta
TTITLE10=Kvinnen I Mitt Liv
TTITLE11=Vinternatt
EXTD=
EXTT0=
EXTT1=
EXTT2=
EXTT3=
EXTT4=
EXTT5=
EXTT6=
EXTT7=
EXTT8=
EXTT9=
EXTT10=
EXTT11=
PLAYORDER=
